<?xml version="1.0" encoding="UTF-8" standalone="no"?>
<!-- Created with Inkscape (http://www.inkscape.org/) -->
<svg width="16" height="16" viewBox="0 0 4.2333332 4.2333335" version="1.1" id="svg1612" xmlns="http://www.w3.org/2000/svg" xmlns:svg="http://www.w3.org/2000/svg">
  <defs id="defs1609"/>
  <g id="layer1" style="display:inline">
    <path id="rect1638" style="fill:#f4f4f4;fill-opacity:1;stroke-width:2.8289" d="M 1,0 V 1 H 0 v 14 h 1 v 1 h 5 v -1 h 1 v 1 h 5 v -1 h 1 v -1 h 1 v -4 h 1 V 9 h 1 V 4 H 14 V 1 H 13 V 0 Z" transform="scale(0.26458333)"/>
  </g>
  <g id="layer2" style="display:inline">
    <rect style="fill:#1a1c2c;fill-opacity:1;stroke-width:0.216723" id="rect3119" width="0.79374999" height="0.5291667" x="0.5291667" y="3.4395833"/>
    <rect style="fill:#1a1c2c;fill-opacity:1;stroke-width:0.216723" id="rect3119-0" width="0.79374999" height="0.5291667" x="2.1166668" y="3.4395833"/>
    <path id="rect3267" style="fill:#1a1c2c;fill-opacity:1;stroke-width:1.43877" d="m 11,2 v 11 h 2 V 9 h 1 V 8 H 13 V 2 Z" transform="scale(0.26458333)"/>
    <rect style="fill:#1a1c2c;fill-opacity:1;stroke-width:0.347395" id="rect3476" width="0.26458335" height="0.79374999" x="3.7041667" y="1.3229166"/>
    <rect style="fill:#1a1c2c;fill-opacity:1;stroke-width:0.195957" id="rect3581" width="0.26458335" height="0.79374999" x="1.0583334" y="1.3229166"/>
    <rect style="fill:#1a1c2c;fill-opacity:1;stroke-width:0.195957" id="rect3581-7" width="0.26458335" height="0.79374999" x="2.1166668" y="1.3229166"/>
  </g>
  <g id="layer3" style="display:inline">
    <rect style="fill:#29366f;fill-opacity:1;stroke-width:0.425787" id="rect3707" width="2.9104166" height="0.5291667" x="0.26458335" y="3.175"/>
    <rect style="fill:#29366f;fill-opacity:1;stroke-width:0.497212" id="rect3707-4" width="2.6458333" height="0.79374999" x="0.5291667" y="0.26458335"/>
  </g>
  <g id="layer4">
    <path id="rect3936" style="fill:#41a6f6;fill-opacity:1;stroke-width:1.09953" d="m 1,2 v 1 7 3 H 12 V 9 3 2 H 11 2 Z m 1,1 h 9 V 9 H 2 Z" transform="scale(0.26458333)"/>
    <g id="g5700">
      <rect style="fill:#f4f4f4;fill-opacity:1;stroke-width:0.275678" id="rect4245" width="0.79374999" height="0.26458335" x="1.3229166" y="2.9104166"/>
      <rect style="fill:#f4f4f4;fill-opacity:1;stroke-width:0.159163" id="rect4245-6" width="0.26458335" height="0.26458335" x="1.0583334" y="2.6458333"/>
      <rect style="fill:#f4f4f4;fill-opacity:1;stroke-width:0.159163" id="rect4245-6-1" width="0.26458335" height="0.26458335" x="2.1166666" y="2.6458333"/>
    </g>
  </g>
<script xmlns=""/></svg>